<svg id="svg" xmlns="http://www.w3.org/2000/svg" xmlns:xlink="http://www.w3.org/1999/xlink" width="400" height="503.2258064516129" viewBox="0, 0, 400,503.2258064516129"><g id="svgg"><path id="path0" d="M109.677 118.984 L 109.677 218.613 82.258 220.597 L 54.839 222.581 53.089 350.000 L 51.340 477.419 74.057 477.419 L 96.774 477.419 97.300 369.355 C 97.901 246.075,94.925 244.864,144.855 388.710 L 175.647 477.419 197.274 477.419 C 223.303 477.419,221.949 479.731,261.513 367.742 C 302.433 251.913,303.226 252.019,303.226 373.293 L 303.226 478.198 327.419 476.196 L 351.613 474.194 353.375 359.533 C 355.468 223.353,354.228 219.355,309.885 219.355 C 282.726 219.355,277.670 217.316,273.879 204.839 C 271.454 196.855,262.401 180.887,253.762 169.355 C 245.122 157.823,241.236 148.387,245.126 148.387 C 263.264 148.387,283.871 116.543,283.871 88.515 C 283.871 38.839,250.127 19.355,164.096 19.355 L 109.677 19.355 109.677 118.984 M220.460 68.742 C 247.438 93.157,224.811 129.032,182.435 129.032 L 161.290 129.032 161.290 93.548 L 161.290 58.065 184.976 58.065 C 198.003 58.065,213.971 62.869,220.460 68.742 M201.615 179.032 C 212.397 191.124,245.161 267.944,245.161 281.130 C 245.161 285.496,235.218 314.753,223.064 346.147 C 198.046 410.770,203.507 412.942,171.915 325.806 C 141.088 240.779,162.467 135.125,201.615 179.032 " stroke="none" fill="#FFFFFF" fill-rule="evenodd"></path></g></svg>