<?xml version="1.0" encoding="UTF-8" standalone="no"?>
<!DOCTYPE svg PUBLIC "-//W3C//DTD SVG 1.1//EN" "http://www.w3.org/Graphics/SVG/1.1/DTD/svg11.dtd">
<svg version="1.1" xmlns="http://www.w3.org/2000/svg" xmlns:xlink="http://www.w3.org/1999/xlink" preserveAspectRatio="xMidYMid meet" viewBox="1.4210854715202004e-13 1.9895196601282805e-13 511.9999999999999 511.9999999999999" width="512" height="512"><defs><path d="M408.46 0C465.65 0 512 46.35 512 103.54C512 185.23 512 326.77 512 408.46C512 465.65 465.65 512 408.46 512C326.77 512 185.23 512 103.54 512C46.35 512 0 465.65 0 408.46C0 326.77 0 185.23 0 103.54C0 46.35 46.35 0 103.54 0C185.23 0 326.77 0 408.46 0Z" id="a2bgfKGLS"></path><path d="M179.86 143.75L179.86 225.34L157.4 226.97L134.95 228.59L133.51 332.94L132.08 437.3L150.69 437.3L169.29 437.3C169.55 384.2 169.69 354.7 169.72 348.8C170.21 247.83 167.78 246.84 208.67 364.65C210.35 369.49 218.75 393.71 233.89 437.3C244.51 437.3 250.42 437.3 251.6 437.3C272.91 437.3 271.8 439.19 304.21 347.47C337.72 252.61 338.37 252.7 338.37 352.02C338.37 357.75 338.37 386.39 338.37 437.93L358.18 436.3L378 434.66C378.86 378.31 379.34 347.01 379.44 340.75C381.15 229.23 380.14 225.95 343.82 225.95C321.58 225.95 317.44 224.28 314.33 214.06C312.35 207.52 304.93 194.45 297.86 185C290.78 175.56 287.6 167.83 290.79 167.83C305.64 167.83 322.52 141.75 322.52 118.8C322.52 78.11 294.88 62.16 224.43 62.16C221.45 62.16 206.6 62.16 179.86 62.16L179.86 143.75M270.59 102.6C292.68 122.6 274.15 151.98 239.44 151.98C238.29 151.98 232.52 151.98 222.13 151.98L222.13 122.92L222.13 93.86C233.77 93.86 240.23 93.86 241.53 93.86C252.19 93.86 265.27 97.79 270.59 102.6M255.15 192.93C263.98 202.83 290.81 265.74 290.81 276.54C290.81 280.12 282.67 304.08 272.72 329.79C252.23 382.71 256.7 384.49 230.83 313.13C205.58 243.5 223.09 156.97 255.15 192.93" id="bSgcOLYob"></path></defs><g><g><g><use xlink:href="#a2bgfKGLS" opacity="1" fill="#222222" fill-opacity="1"></use><g><use xlink:href="#a2bgfKGLS" opacity="1" fill-opacity="0" stroke="#d6e78f" stroke-width="0" stroke-opacity="1"></use></g></g><g><use xlink:href="#bSgcOLYob" opacity="1" fill="#ffffff" fill-opacity="1"></use><g><use xlink:href="#bSgcOLYob" opacity="1" fill-opacity="0" stroke="#000000" stroke-width="1" stroke-opacity="0"></use></g></g></g></g></svg>